<svg xmlns="http://www.w3.org/2000/svg" width="24" height="24" viewBox="0 0 960 960">
  <path d="M800,760L800,200L560,200L560,760L800,760ZM160,840L160,680Q170,680 179.5,680Q189,680 200,680Q211,680 220.5,680Q230,680 240,680L240,760L480,760L480,200L240,200L240,280Q230,280 220.5,280Q211,280 200,280Q189,280 179.5,280Q170,280 160,280L160,120L880,120L880,840L160,840ZM480,480L480,480L480,480Q480,480 480,480Q480,480 480,480Q480,480 480,480Q480,480 480,480L480,480L480,480ZM560,480L560,480L480,480L480,480L560,480ZM560,480L560,480L560,480L560,480ZM160,600L160,520L80,520L80,440L160,440L160,360L240,360L240,440L320,440L320,520L240,520L240,600L160,600Z" fill="#000000"/>
</svg>
