<svg xmlns="http://www.w3.org/2000/svg" width="24" height="24" viewBox="0 0 100 100">
  <path d="M93.1 21.3L79.7 7.9a4.5 4.5 0 0 0-6.4 0L7 74.3a4.5 4.5 0 0 0 0 6.4l13.4 13.4a4.5 4.5 0 0 0 6.4 0l2-2L19 82a1.5 1.5 0 1 1 2-2l10 9.9 3-3.2-9.8-9.9a1.5 1.5 0 1 1 2.1-2.1l10 9.9 3-3.2-9.8-9.9a1.5 1.5 0 1 1 2.1-2.1l10 9.9 3.1-3.2-9.9-9.9a1.5 1.5 0 1 1 2.1-2.1L47 74l3.1-3.2-9.9-9.9a1.5 1.5 0 1 1 2.1-2.1l10 9.9 3.1-3.2-9.9-9.9a1.5 1.5 0 1 1 2.1-2.1l10 9.9 3.1-3.2-9.9-10a1.5 1.5 0 1 1 2.1-2l10 9.9 3.1-3.2-9.9-10a1.5 1.5 0 1 1 2.1-2l10 9.9 3.1-3.2-9.9-10a1.5 1.5 0 1 1 2.1-2l10 9.9 3.1-3.2-9.9-10a1.5 1.5 0 1 1 2.1-2l10 9.9 3.1-3.2L72 29a1.5 1.5 0 1 1 2.1-2l10 9.9 3.1-3.2-9.9-10a1.5 1.5 0 1 1 2.1-2l10 9.9 3.8-4a4.5 4.5 0 0 0 0-6.3z" fill="#000000"/>
</svg>
