<svg xmlns="http://www.w3.org/2000/svg" width="24" height="24" viewBox="0 0 24 24">
  <path d="M12,4L12,1L8,5l4,4L12,6c3.31,0 6,2.69 6,6 0,1.01 -0.25,1.97 -0.7,2.8l1.46,1.46C19.54,15.03 20,13.57 20,12c0,-4.42 -3.58,-8 -8,-8zM12,18c-3.31,0 -6,-2.69 -6,-6 0,-1.01 0.25,-1.97 0.7,-2.8L5.24,7.74C4.46,8.97 4,10.43 4,12c0,4.42 3.58,8 8,8v3l4,-4 -4,-4v3z" fill="#000000"/>
  <path d="M19 6.41L17.59 5 12 10.59 6.41 5 5 6.41 10.59 12 5 17.59 6.41 19 12 13.41 17.59
19 19 17.59 13.41 12z" fill="#000000"/>
  <path d="M0 0h24v24H0z" fill="#000000"/>
</svg>
