<svg xmlns="http://www.w3.org/2000/svg" width="24" height="24" viewBox="0 0 114.54 150.53">
  <path d="M 110.6 36 L 4 36 c -2.2 0 -4 1.8 -4 4 v 15.8 c 0 2.2 1.8 4 4 4 L 16.2 59.7 L 23 134.7 L 11.8 134.7 c -2.2 0 -4 1.8 -4 4 v 7.9 c 0 2.2 1.8 4 4 4 h 90.8 c 2.2 0 4 -1.8 4 -4 v -7.9 c 0 -2.2 -1.8 -4 -4 -4 h -11.1 l 6.8 -75 h 12.2 c 2.2 0 4 -1.8 4 -4 v -15.8 c 0 -2.2 -1.8 -4 -4 -4 z M 73.1 105.6 c 0 1.1 -0.4 2 -1.2 2.8 l -5.5 5.5 h 0 a 4 4 0 0 1 -2.8 1.2 L 50.9 115 a 4 4 0 0 1 -2.8 -1.2 l -5.5 -5.5 a 4 4 0 0 1 -1.2 -2.8 L 41.5 77 c 0 -1.1 0.4 -2 1.2 -2.8 l 5.5 -5.5 h 0 a 4 4 0 0 1 2.8 -1.2 L 63.6 67.6 a 4 4 0 0 1 2.8 1.2 l 5.5 5.5 a 4 4 0 0 1 1.2 2.8 z M 35.5 24.8 v -2.5 a 7.9 7.9 0 0 1 3.5 -6.6 l 8.7 -5.8 a 10.1 10.1 0 0 1 1.8 -5.2 a 10 10 0 0 1 4.2 -3.5 c 4.9 -2.4 10.4 -1.3 12.4 2.6 c 1.9 3.9 -0.4 9 -5.3 11.5 a 10.9 10.9 0 0 1 -8.2 0.8 l -9.2 6.1 v 2.5 a 4 4 0 0 1 -4 4 a 4 4 0 0 1 -4 -4 z" fill="#000000"/>
</svg>
